<svg xmlns="http://www.w3.org/2000/svg" width="185" height="278" viewBox="0 0 185 278"><rect width="100%" height="100%" fill="#070B11"/><path fill="#06b6d4" d="M40.23 122.405h3.22l-1.23-3.37q-.09-.22-.19-.53-.09-.31-.19-.67-.09.36-.19.67-.1.31-.19.55l-1.23 3.35Zm2.57-6.3 3.98 10.12h-1.46q-.24 0-.4-.12-.15-.12-.23-.31l-.75-2.06h-4.2l-.75 2.06q-.06.16-.22.3-.16.13-.4.13H36.9l3.99-10.12h1.91Zm9.89 5.04v3.22q.29.35.64.5.34.15.75.15.39 0 .71-.15.31-.15.53-.45.22-.3.34-.76.12-.45.12-1.08 0-.63-.1-1.06-.1-.44-.29-.71-.19-.28-.46-.4-.27-.13-.61-.13-.54 0-.92.23-.38.22-.71.64Zm-.23-1.79.14.67q.44-.5 1-.81.56-.31 1.31-.31.59 0 1.08.25.48.24.84.71.35.47.54 1.15.2.68.2 1.56 0 .81-.22 1.49-.22.69-.62 1.19-.4.51-.97.79t-1.28.28q-.6 0-1.03-.18-.43-.19-.76-.51v2.94h-1.73v-9.53h1.06q.33 0 .44.31Zm6.51-.31h1.73v7.18h-1.73v-7.18Zm1.97-2.1q0 .23-.09.42-.09.2-.24.35-.15.14-.36.23-.2.09-.43.09-.22 0-.42-.09-.2-.09-.35-.23-.15-.15-.23-.35-.09-.19-.09-.42 0-.23.09-.43.08-.2.23-.35.15-.15.35-.23.2-.09.42-.09.23 0 .43.09.21.08.36.23.15.15.24.35.09.2.09.43Zm7.13 2.99-.46.63q-.08.09-.15.15-.07.06-.21.06-.14 0-.26-.08-.13-.08-.3-.19-.18-.1-.42-.18-.24-.08-.6-.08-.45 0-.8.17-.34.16-.57.47-.22.31-.34.74-.11.44-.11 1 0 .57.13 1.02.12.44.35.75.23.3.56.46.33.16.74.16t.67-.1q.25-.1.43-.23.17-.12.3-.22.13-.1.29-.1.21 0 .32.16l.5.63q-.29.34-.63.56-.33.23-.69.37-.36.13-.74.19-.39.05-.76.05-.67 0-1.26-.24-.59-.25-1.03-.73-.44-.47-.69-1.16-.26-.69-.26-1.57 0-.8.23-1.47.23-.68.67-1.17.44-.49 1.09-.77.65-.28 1.5-.28.8 0 1.41.25.6.26 1.09.75Zm3.54 6.4q-.94 0-1.44-.53t-.5-1.46v-4.01h-.74q-.14 0-.23-.09-.1-.09-.1-.27v-.69l1.15-.19.37-1.96q.03-.14.13-.21.1-.08.25-.08h.9v2.26h1.92v1.23H71.4v3.89q0 .34.16.53.17.19.45.19.17 0 .27-.04.11-.04.19-.08t.15-.08q.06-.04.12-.04.08 0 .13.04t.1.12l.52.83q-.38.32-.87.48-.49.16-1.01.16Zm7.27-7.29h1.73v7.18h-1.06q-.34 0-.43-.32l-.12-.57q-.44.45-.97.73-.53.27-1.26.27-.58 0-1.03-.2-.46-.2-.76-.56-.31-.37-.47-.87-.16-.5-.16-1.1v-4.56h1.73v4.56q0 .66.31 1.02.3.36.91.36.45 0 .84-.2.39-.2.74-.55v-5.19Zm4.96.43.11.81q.34-.64.8-1.01t1.09-.37q.5 0 .8.22l-.11 1.3q-.04.12-.11.18-.06.05-.17.05-.11 0-.32-.04-.2-.03-.4-.03-.29 0-.51.08-.22.09-.4.24-.18.16-.32.38-.13.23-.25.52v4.42h-1.73v-7.18h1.01q.27 0 .37.09.11.1.14.34Zm5.07 2.33h3.26q0-.33-.1-.63-.09-.3-.28-.52-.19-.23-.48-.36-.29-.12-.68-.12-.74 0-1.17.42-.44.43-.55 1.21Zm4.41 1.05h-4.45q.04.55.2.95.15.4.4.67.25.26.6.39t.77.13q.42 0 .72-.1.31-.1.53-.22l.4-.21q.17-.1.34-.1.21 0 .32.16l.49.63q-.28.34-.64.56-.36.23-.74.37-.39.13-.8.19-.4.05-.78.05-.75 0-1.39-.24-.64-.25-1.12-.74-.48-.48-.75-1.2t-.27-1.67q0-.73.24-1.38.23-.65.68-1.12.44-.48 1.08-.76.64-.28 1.45-.28.68 0 1.25.21.58.22.99.64.41.41.65 1.02.23.6.23 1.38 0 .39-.08.53-.09.14-.32.14Zm5.15-3.81h1.74v7.18h-1.74v-7.18Zm1.98-2.1q0 .23-.09.42-.09.2-.24.35-.15.14-.36.23-.2.09-.43.09-.23 0-.42-.09-.2-.09-.35-.23-.15-.15-.24-.35-.08-.19-.08-.42 0-.23.08-.43.09-.2.24-.35.15-.15.35-.23.19-.09.42-.09.23 0 .43.09.21.08.36.23.15.15.24.35.09.2.09.43Zm6.3 2.87-.39.63q-.07.11-.15.16-.08.04-.2.04-.12 0-.27-.07-.14-.07-.33-.16-.19-.08-.43-.15-.24-.07-.57-.07-.51 0-.8.21-.29.22-.29.57 0 .23.15.39t.4.28q.25.11.56.21.32.09.64.2.33.12.64.26.32.14.57.36.24.22.4.53.15.31.15.75 0 .51-.19.95-.19.44-.55.76-.36.32-.9.49-.53.18-1.23.18-.38 0-.73-.06-.35-.07-.68-.19-.32-.12-.6-.28-.28-.16-.49-.35l.4-.66q.08-.12.18-.18.11-.06.27-.06.16 0 .31.09.14.09.33.19.19.11.44.2.26.09.65.09.31 0 .53-.07.22-.08.36-.19.15-.12.21-.28.07-.16.07-.33 0-.25-.15-.41-.15-.16-.4-.28-.25-.12-.57-.21-.32-.1-.65-.21-.33-.11-.65-.26-.32-.15-.57-.38-.25-.24-.4-.57-.15-.34-.15-.81 0-.44.18-.84.17-.4.51-.7.34-.3.85-.48.51-.17 1.17-.17.74 0 1.35.24.61.25 1.02.64Zm13.72-.77h1.31l-2.28 7.18h-1.38q-.24 0-.33-.31l-1.29-4.15-.12-.42q-.05-.2-.08-.41l-.1.42q-.05.21-.11.42l-1.31 4.14q-.09.31-.37.31h-1.33l-2.28-7.18h1.38q.19 0 .32.09.14.09.18.23l1.03 3.84q.07.31.13.61t.1.6q.08-.3.17-.6.09-.3.18-.61l1.19-3.85q.05-.14.17-.24.12-.09.3-.09h.76q.18 0 .31.09.13.1.17.24l1.16 3.85q.09.31.17.62l.16.6q.09-.59.26-1.22l1.05-3.84q.05-.14.18-.23.12-.09.3-.09Zm5.47-.11q.8 0 1.46.25.65.26 1.12.74.46.48.71 1.16.25.69.25 1.54 0 .85-.25 1.54-.25.68-.71 1.16-.47.49-1.12.75-.66.25-1.46.25-.8 0-1.46-.25-.66-.26-1.12-.75-.47-.48-.72-1.16-.26-.69-.26-1.54 0-.85.26-1.54.25-.68.72-1.16.46-.48 1.12-.74.66-.25 1.46-.25Zm0 6.06q.9 0 1.33-.6.43-.6.43-1.76 0-1.16-.43-1.77-.43-.61-1.33-.61-.91 0-1.34.61-.44.61-.44 1.77 0 1.15.44 1.76.43.6 1.34.6Zm6.39-5.52.11.81q.33-.64.8-1.01.46-.37 1.09-.37.5 0 .8.22l-.12 1.3q-.03.12-.1.18-.06.05-.18.05-.1 0-.31-.04-.2-.03-.4-.03-.29 0-.51.08-.22.09-.4.24-.18.16-.32.38-.13.23-.25.52v4.42h-1.73v-7.18h1.01q.27 0 .37.09.11.1.14.34Zm6.09 6.86q-.93 0-1.43-.53-.51-.53-.51-1.46v-4.01h-.73q-.14 0-.24-.09-.1-.09-.1-.27v-.69l1.16-.19.36-1.96q.04-.14.14-.21.09-.08.25-.08h.89v2.26h1.92v1.23h-1.92v3.89q0 .34.17.53.16.19.45.19.16 0 .27-.04.11-.04.19-.08t.14-.08q.07-.04.13-.04.08 0 .12.04.05.04.11.12l.52.83q-.38.32-.87.48-.49.16-1.02.16Zm4.55-10.51v3.99q.42-.39.92-.64.51-.24 1.18-.24.59 0 1.05.2.45.19.76.56.3.36.46.86.16.5.16 1.1v4.57h-1.73v-4.57q0-.66-.3-1.02-.31-.36-.92-.36-.45 0-.84.2-.39.21-.74.56v5.19h-1.73v-10.4h1.73Zm-102.65 25.35v-1.22q-.75.04-1.26.13-.52.1-.82.25-.31.14-.44.34-.14.19-.14.43 0 .45.27.65.27.19.71.19.53 0 .92-.19.38-.19.76-.58Zm-3.66-3.78-.31-.55q1.24-1.14 2.99-1.14.63 0 1.12.21.5.21.84.58.35.36.52.87.18.52.18 1.12v4.54h-.78q-.25 0-.38-.07-.13-.08-.21-.3l-.15-.52q-.28.25-.54.43-.25.19-.53.31-.28.13-.6.2-.32.06-.71.06-.45 0-.84-.12-.38-.12-.66-.37-.28-.24-.44-.61-.15-.36-.15-.84 0-.28.09-.55t.3-.51q.21-.25.53-.46.33-.22.81-.38.48-.16 1.12-.26.64-.1 1.46-.13v-.42q0-.72-.31-1.06-.31-.35-.89-.35-.42 0-.7.1-.27.1-.48.22-.21.12-.39.22-.17.1-.38.1-.18 0-.31-.1-.12-.09-.2-.22Zm12.76 5.74q-.94 0-1.44-.53-.5-.52-.5-1.46v-4.01h-.73q-.14 0-.24-.09-.1-.09-.1-.27v-.69l1.16-.19.36-1.96q.04-.14.13-.21.1-.08.26-.08h.89v2.26h1.92v1.23h-1.92v3.89q0 .34.17.53.16.19.45.19.16 0 .27-.04.11-.04.19-.08t.14-.08q.06-.04.13-.04t.12.04q.05.04.11.12l.52.84q-.38.31-.87.47-.49.16-1.02.16Zm4.55-10.51v3.99q.42-.39.92-.64.5-.24 1.18-.24.59 0 1.05.2.45.2.75.56.31.36.47.86.15.5.15 1.1v4.57h-1.72v-4.57q0-.66-.31-1.02-.3-.36-.91-.36-.45 0-.84.2-.39.21-.74.56v5.19h-1.73v-10.4h1.73Zm9.34 3.11q.8 0 1.45.26.66.25 1.12.73.47.48.72 1.16.25.69.25 1.54 0 .85-.25 1.54-.25.68-.72 1.16-.46.49-1.12.75-.65.26-1.45.26-.8 0-1.46-.26-.66-.26-1.13-.75-.46-.48-.72-1.16-.25-.69-.25-1.54 0-.85.25-1.54.26-.68.72-1.16.47-.48 1.13-.73.66-.26 1.46-.26Zm0 6.07q.9 0 1.33-.61.43-.6.43-1.76 0-1.16-.43-1.77-.43-.61-1.33-.61-.91 0-1.35.61-.43.61-.43 1.77 0 1.15.43 1.76.44.61 1.35.61Zm9.32-5.96h1.73v7.18h-1.05q-.35 0-.44-.32l-.12-.57q-.44.45-.97.73-.53.27-1.25.27-.59 0-1.04-.2-.45-.2-.76-.56-.31-.36-.47-.87-.15-.5-.15-1.1v-4.56h1.72v4.56q0 .66.31 1.02.3.36.91.36.45 0 .84-.2.39-.2.74-.55v-5.19Zm8.22.77-.4.63q-.07.11-.14.16-.08.04-.2.04-.13 0-.27-.07t-.33-.16q-.19-.08-.43-.15-.24-.07-.57-.07-.51 0-.8.21-.29.22-.29.57 0 .23.15.39t.39.27q.25.12.57.22.31.09.64.21.32.11.64.25.31.14.56.36.25.23.4.53.15.31.15.75 0 .51-.18.95-.19.44-.55.76-.37.31-.9.49-.54.18-1.24.18-.37 0-.72-.06-.36-.07-.68-.19-.33-.12-.6-.28-.28-.16-.49-.35l.4-.66q.08-.12.18-.18.11-.06.27-.06.16 0 .3.09.15.09.33.19.19.11.45.2.25.09.65.09.3 0 .52-.07.23-.08.37-.19.14-.12.21-.28.07-.16.07-.33 0-.25-.16-.41-.15-.16-.39-.28-.25-.12-.57-.21-.32-.1-.65-.21-.33-.11-.65-.26-.32-.15-.57-.38-.25-.23-.4-.57-.15-.34-.15-.81 0-.44.18-.84.17-.4.51-.7.34-.3.85-.48.5-.17 1.17-.17.74 0 1.35.24.61.25 1.02.64Zm5.17 4.56v-1.22q-.75.04-1.26.13-.51.1-.82.25-.31.14-.44.34-.13.19-.13.43 0 .45.26.65.27.19.71.19.53 0 .92-.19t.76-.58Zm-3.66-3.78-.3-.55q1.24-1.14 2.98-1.14.63 0 1.13.21.49.21.84.58.34.36.52.87.18.52.18 1.12v4.54h-.79q-.24 0-.38-.07-.13-.08-.21-.3l-.15-.52q-.27.25-.53.43-.26.19-.54.31-.28.13-.6.2-.32.06-.7.06-.46 0-.84-.12-.39-.12-.67-.37-.28-.24-.43-.61-.16-.36-.16-.84 0-.28.09-.55.1-.27.3-.51.21-.25.54-.46.33-.22.81-.38.48-.16 1.11-.26.64-.1 1.46-.13v-.42q0-.72-.31-1.06-.31-.35-.89-.35-.42 0-.7.1-.27.1-.48.22-.21.12-.38.22t-.38.1q-.19 0-.31-.1-.13-.09-.21-.22Zm8.47-1.24.12.57q.21-.22.45-.4.25-.19.52-.32t.57-.2q.31-.07.68-.07.58 0 1.04.2.45.2.76.56.3.36.46.86.16.5.16 1.1v4.57h-1.73v-4.57q0-.66-.3-1.02t-.92-.36q-.45 0-.84.2-.39.21-.74.56v5.19h-1.73v-7.18h1.06q.33 0 .44.31Zm10.9 4.74v-3.22q-.29-.35-.64-.5-.34-.15-.74-.15-.39 0-.71.15-.31.15-.54.44-.22.3-.34.76-.12.46-.12 1.08 0 .63.1 1.07.1.44.29.71.19.28.46.4.28.12.61.12.54 0 .92-.22t.71-.64Zm0-8.27h1.73v10.4h-1.05q-.35 0-.44-.32l-.15-.69q-.43.5-.99.81-.57.31-1.32.31-.58 0-1.07-.25-.49-.25-.85-.71-.35-.47-.54-1.15-.2-.69-.2-1.57 0-.8.22-1.48.22-.69.62-1.19.41-.51.98-.79.56-.29 1.27-.29.6 0 1.03.19.43.19.76.52v-3.79Zm15.78 3.22h1.32l-2.28 7.18h-1.39q-.24 0-.33-.31l-1.29-4.15q-.06-.21-.11-.42-.06-.2-.09-.41-.04.21-.09.42-.06.21-.12.43l-1.31 4.13q-.08.31-.37.31h-1.33l-2.28-7.18h1.38q.19 0 .33.09.13.09.17.23l1.03 3.84q.08.31.14.61.06.3.1.6.07-.3.16-.6t.19-.61l1.19-3.85q.04-.14.16-.23.12-.1.3-.1h.76q.18 0 .31.1.13.09.18.23l1.15 3.85q.09.31.17.62l.16.6q.09-.59.26-1.22l1.06-3.84q.04-.14.17-.23t.3-.09Zm5.48-.11q.79 0 1.45.26.65.25 1.12.73.46.48.72 1.16.25.69.25 1.54 0 .85-.25 1.54-.26.68-.72 1.16-.47.49-1.12.75-.66.26-1.45.26-.81 0-1.47-.26-.66-.26-1.12-.75-.47-.48-.72-1.16-.26-.69-.26-1.54 0-.85.26-1.54.25-.68.72-1.16.46-.48 1.12-.73.66-.26 1.47-.26Zm0 6.07q.89 0 1.32-.61.43-.6.43-1.76 0-1.16-.43-1.77-.43-.61-1.32-.61-.91 0-1.35.61-.44.61-.44 1.77 0 1.15.44 1.76.44.61 1.35.61Zm6.39-5.53.1.81q.34-.64.8-1.01t1.09-.37q.5 0 .8.22l-.11 1.3q-.04.12-.1.18-.07.05-.18.05-.11 0-.31-.04-.21-.03-.41-.03-.28 0-.51.08-.22.09-.4.24-.18.16-.31.39-.14.22-.26.51v4.42h-1.73v-7.18h1.02q.26 0 .37.09.1.1.14.34Zm8.2 4.62v-3.22q-.29-.35-.64-.5-.35-.15-.75-.15-.39 0-.7.15-.32.15-.54.44-.23.3-.34.76-.12.46-.12 1.08 0 .63.1 1.07.1.44.29.71.19.28.46.4t.61.12q.54 0 .92-.22.37-.22.71-.64Zm0-8.27h1.73v10.4h-1.06q-.34 0-.43-.32l-.15-.69q-.43.5-1 .81-.56.31-1.31.31-.59 0-1.08-.25-.49-.25-.84-.71-.35-.47-.55-1.15-.19-.69-.19-1.57 0-.8.22-1.48.22-.69.62-1.19.41-.51.97-.79.57-.29 1.28-.29.6 0 1.03.19.42.19.76.52v-3.79Zm8.21 3.99-.39.63q-.07.11-.15.16-.07.04-.19.04-.13 0-.27-.07l-.34-.16q-.18-.08-.43-.15-.24-.07-.57-.07-.51 0-.8.21-.29.22-.29.57 0 .23.15.39t.4.27q.25.12.56.22.32.09.65.21.32.11.64.25.31.14.56.36.25.23.4.53.15.31.15.75 0 .51-.19.95-.18.44-.55.76-.36.31-.9.49-.53.18-1.23.18-.37 0-.73-.06-.35-.07-.67-.19-.33-.12-.61-.28-.27-.16-.48-.35l.4-.66q.07-.12.18-.18.1-.06.26-.06t.31.09q.14.09.33.19.19.11.45.2.25.09.64.09.31 0 .53-.07.22-.08.37-.19.14-.12.21-.28.06-.16.06-.33 0-.25-.15-.41-.15-.16-.4-.28-.25-.12-.56-.21-.32-.1-.66-.21-.33-.11-.65-.26-.32-.15-.56-.38-.25-.23-.4-.57-.15-.34-.15-.81 0-.44.17-.84.18-.4.52-.7.34-.3.84-.48.51-.17 1.18-.17.74 0 1.35.24.61.25 1.01.64Zm1.65 8.4-.3-.27q-.12-.11-.12-.26 0-.06.04-.13.03-.07.09-.13.08-.08.19-.2.11-.12.22-.28.11-.16.21-.35.09-.18.14-.39-.22 0-.4-.08-.19-.08-.31-.22-.13-.14-.21-.33-.07-.19-.07-.41 0-.2.07-.37.08-.17.21-.3.13-.13.32-.21.19-.07.41-.07.27 0 .47.1.2.09.33.25.13.17.19.38.07.22.07.45 0 .34-.1.71-.1.37-.3.74-.19.37-.48.72-.3.35-.67.65Zm-96.23 9.73v3.22q.29.35.64.5.34.15.73.15.4 0 .72-.14.32-.15.54-.45.22-.31.34-.78.12-.47.12-1.13 0-1.18-.39-1.71t-1.13-.53q-.49 0-.87.23-.37.23-.7.64Zm0-5.32v4.1q.43-.45.96-.72.53-.27 1.21-.27.62 0 1.12.24.5.25.85.7.36.46.55 1.11.19.66.19 1.47 0 .87-.22 1.59-.22.71-.62 1.22t-.97.79q-.57.27-1.26.27-.34 0-.61-.06-.27-.07-.5-.19-.23-.12-.43-.29-.19-.17-.36-.38l-.08.48q-.04.19-.14.26-.11.08-.28.08h-1.14v-10.4h1.73Zm10.67 3.22h1.73v7.18h-1.06q-.34 0-.43-.31l-.12-.58q-.44.45-.97.73-.53.27-1.25.27-.59 0-1.04-.2-.46-.2-.76-.56-.31-.36-.47-.87-.16-.5-.16-1.1v-4.56h1.73v4.56q0 .66.31 1.02.3.36.91.36.45 0 .84-.2.39-.2.74-.55v-5.19Zm5.83 7.29q-.93 0-1.44-.53-.5-.52-.5-1.46v-4.01h-.73q-.14 0-.24-.09-.1-.09-.1-.27v-.69l1.16-.19.36-1.96q.04-.14.14-.21.09-.08.25-.08h.89v2.26h1.92v1.23H67.5v3.9q0 .33.17.52.16.19.45.19.16 0 .27-.04.11-.04.19-.08t.14-.08q.06-.04.13-.04t.12.04q.05.04.11.11l.52.85q-.38.31-.87.47-.49.16-1.02.16Zm7.72-6.98.12.57q.21-.22.45-.4.25-.19.52-.32t.57-.2q.31-.07.68-.07.58 0 1.04.2.45.2.76.56.3.36.46.86.16.5.16 1.1v4.57h-1.73v-4.57q0-.66-.3-1.02t-.92-.36q-.45 0-.84.2-.39.21-.74.56v5.19h-1.73v-7.18h1.06q.33 0 .44.31Zm9.57-.42q.8 0 1.46.26.65.25 1.12.73.46.48.71 1.16.26.69.26 1.54 0 .85-.26 1.54-.25.68-.71 1.16-.47.49-1.12.75-.66.25-1.46.25-.8 0-1.46-.25-.66-.26-1.12-.75-.47-.48-.72-1.16-.26-.69-.26-1.54 0-.85.26-1.54.25-.68.72-1.16.46-.48 1.12-.73.66-.26 1.46-.26Zm0 6.07q.9 0 1.33-.61.43-.6.43-1.76 0-1.16-.43-1.77-.43-.61-1.33-.61-.91 0-1.34.61-.44.61-.44 1.77 0 1.15.44 1.76.43.61 1.34.61Zm7.26 1.33q-.94 0-1.44-.53-.5-.52-.5-1.46v-4.01h-.73q-.14 0-.24-.09-.1-.09-.1-.27v-.69l1.16-.19.36-1.96q.04-.14.13-.21.1-.08.26-.08h.89v2.26h1.92v1.23h-1.92v3.9q0 .33.17.52.16.19.45.19.16 0 .27-.04.11-.04.19-.08t.14-.08q.06-.04.13-.04t.12.04q.05.04.11.11l.52.85q-.38.31-.87.47-.49.16-1.02.16Zm8.61 0q-.94 0-1.44-.53-.5-.52-.5-1.46v-4.01h-.73q-.14 0-.24-.09-.1-.09-.1-.27v-.69l1.16-.19.36-1.96q.04-.14.13-.21.1-.08.26-.08h.89v2.26h1.92v1.23h-1.92v3.9q0 .33.17.52.16.19.45.19.16 0 .27-.04.11-.04.19-.08t.14-.08q.06-.04.13-.04t.12.04q.05.04.11.11l.52.85q-.38.31-.87.47-.49.16-1.02.16Zm5.99-7.4q.8 0 1.46.26.65.25 1.12.73.46.48.71 1.16.26.69.26 1.54 0 .85-.26 1.54-.25.68-.71 1.16-.47.49-1.12.75-.66.25-1.46.25-.8 0-1.46-.25-.66-.26-1.12-.75-.47-.48-.72-1.16-.26-.69-.26-1.54 0-.85.26-1.54.25-.68.72-1.16.46-.48 1.12-.73.66-.26 1.46-.26Zm0 6.07q.9 0 1.33-.61.43-.6.43-1.76 0-1.16-.43-1.77-.43-.61-1.33-.61-.91 0-1.34.61-.44.61-.44 1.77 0 1.15.44 1.76.43.61 1.34.61Zm9.38-.91v-3.22q-.3-.35-.64-.5-.35-.15-.75-.15-.39 0-.71.15-.31.15-.53.44-.23.3-.35.76-.12.46-.12 1.08 0 .63.1 1.07.11.44.3.71.18.28.46.4.27.12.61.12.54 0 .91-.22.38-.22.72-.64Zm0-8.27h1.73v10.4h-1.06q-.34 0-.43-.31l-.15-.7q-.44.5-1 .81-.56.3-1.31.3-.59 0-1.08-.24-.49-.24-.84-.71-.36-.47-.55-1.15-.19-.69-.19-1.57 0-.8.22-1.48.21-.69.62-1.19.4-.51.97-.79t1.28-.28q.6 0 1.02.18.43.19.77.51v-3.78Zm7.23 8.55v-1.22q-.75.04-1.26.13-.51.1-.82.25-.31.14-.44.34-.13.19-.13.43 0 .45.26.65.27.19.71.19.53 0 .92-.19t.76-.58Zm-3.66-3.78-.3-.55q1.24-1.13 2.98-1.13.63 0 1.13.2.49.21.84.58.34.36.52.87.18.52.18 1.12v4.54h-.79q-.24 0-.38-.07-.13-.08-.21-.3l-.15-.52q-.27.25-.53.43-.26.19-.54.31-.28.13-.6.2-.32.06-.7.06-.46 0-.84-.12-.39-.12-.67-.37-.28-.24-.43-.61-.16-.36-.16-.84 0-.28.09-.55.1-.27.3-.51.21-.25.54-.46.33-.22.81-.38.48-.16 1.11-.26.64-.1 1.46-.13v-.42q0-.72-.31-1.06-.31-.35-.89-.35-.42 0-.69.1-.28.1-.49.22-.21.12-.38.22t-.38.1q-.19 0-.31-.1-.13-.09-.21-.22Zm12.11-1.55h1.38l-3.91 9.15q-.08.19-.2.28-.12.1-.37.1h-1.29l1.34-2.89-2.9-6.64h1.52q.2 0 .32.1.11.09.17.22l1.52 3.72q.08.19.13.38t.1.39q.07-.2.13-.39t.14-.38l1.44-3.72q.06-.14.19-.23t.29-.09Zm1.99 6.23q0-.22.08-.42.08-.19.22-.33t.34-.22q.2-.09.42-.09.22 0 .42.09.19.08.33.22.15.14.23.33.08.2.08.42 0 .22-.08.41-.08.2-.23.34-.14.14-.33.22-.2.08-.42.08-.22 0-.42-.08-.2-.08-.34-.22t-.22-.34q-.08-.19-.08-.41Z"/></svg>